<svg xmlns="http://www.w3.org/2000/svg" viewBox="0 0 100 100">
<!-- SVG created with Arrow, by QuiverAI (https://quiver.ai) -->
  <style type="text/css">.cls-0 {fill:url(#SVGID_1_);}
.cls-1 {fill:url(#SVGID_2_);}
.cls-2 {fill:url(#SVGID_3_);}
.cls-3 {fill:url(#SVGID_4_);}</style>
  <linearGradient id="SVGID_1_" x1="54.74" x2="98.29" y1="23.07" y2="10.4" gradientUnits="userSpaceOnUse">
    <stop stop-color="#99D5FF" offset="0"/>
    <stop stop-color="#0084FF" offset=".3602"/>
    <stop stop-color="#004CE6" offset="1"/>
  </linearGradient>
  <path class="cls-0" d="m54.7 21.7v8.9h3.3l19.9-9.7 1.4-0.1 0.1 1.8-9.7 19.9v3.1h9.6l16.2-12.7 2.7-2.8v-27.9h-28.6l-14.9 19.5z"/>
  <linearGradient id="SVGID_2_" x1="1.691" x2="45.24" y1="10.02" y2="32.95" gradientUnits="userSpaceOnUse">
    <stop stop-color="#005CE6" offset=".3602"/>
    <stop stop-color="#0084FF" offset=".7432"/>
    <stop stop-color="#C9E7FF" offset="1"/>
  </linearGradient>
  <path class="cls-1" d="m2.2 2.2v27.9l2.7 2.2 15.8 13.4h9.5v-3.2l-9.8-20 0.1-1.8 1.6 0.1 19.9 9.8h3.2v-8.9l-14.9-19.5z"/>
  <linearGradient id="SVGID_3_" x1="2.223" x2="45.24" y1="89.56" y2="67.06" gradientUnits="userSpaceOnUse">
    <stop stop-color="#005CE6" offset=".3602"/>
    <stop stop-color="#0084FF" offset=".7432"/>
    <stop stop-color="#C9E7FF" offset="1"/>
  </linearGradient>
  <path class="cls-2" d="m20.6 54.4-17.2 13.2-1.2 1.6v28.7h28.1l14.9-19.4v-9.7h-3.3l-19.9 10.5-1.5 0.1v-1.8l9.7-19.8v-3.4z"/>
  <linearGradient id="SVGID_4_" x1="54.74" x2="98.29" y1="78.41" y2="89.91" gradientUnits="userSpaceOnUse">
    <stop stop-color="#99D5FF" offset="0"/>
    <stop stop-color="#0084FF" offset=".3602"/>
    <stop stop-color="#004CE6" offset="1"/>
  </linearGradient>
  <path class="cls-3" d="m54.7 68.8v9.7l14.9 19.4h28.7v-28.7l-19.1-14.8h-9.5v3.3l9.7 19.9-0.1 1.7h-1.4l-19.7-10.5z"/>
</svg>